<svg xmlns="http://www.w3.org/2000/svg" viewBox="0 0 108 107"><defs><style>.cls-1{fill:#fff;}.cls-1,.cls-2{stroke:red;stroke-miterlimit:10;stroke-width:4px;}</style></defs><g id="Слой_2" data-name="Слой 2"><g id="Слой_1-2" data-name="Слой 1"><path class="cls-1" d="M3,105a1,1,0,0,1-.71-.3,1,1,0,0,1,0-1.41l102-101a1,1,0,1,1,1.4,1.42l-102,101A1,1,0,0,1,3,105Z"/><path class="cls-1" d="M3,104,105,3"/><path class="cls-2" d="M105,105a1,1,0,0,1-.7-.29L2.3,3.71A1,1,0,1,1,3.7,2.29l102,101a1,1,0,0,1,0,1.41A1,1,0,0,1,105,105Z"/><path class="cls-1" d="M105,104,3,3"/></g></g></svg>